<?xml version="1.0" encoding="UTF-8" standalone="no"?>
<!--
 * Copyright (C) 2019  Josh Habdas <jhabdas@protonmail.com>
 *
 * This file is part of After Dark.
 *
 * After Dark is free software: you can redistribute it and/or modify
 * it under the terms of the GNU Affero General Public License as published
 * by the Free Software Foundation, either version 3 of the License, or
 * (at your option) any later version.
 *
 * After Dark is distributed in the hope that it will be useful,
 * but WITHOUT ANY WARRANTY; without even the implied warranty of
 * MERCHANTABILITY or FITNESS FOR A PARTICULAR PURPOSE.  See the
 * GNU Affero General Public License for more details.
 *
 * You should have received a copy of the GNU Affero General Public License
 * along with this program.  If not, see <https://www.gnu.org/licenses/>.
 -->

<svg
   xmlns:dc="http://purl.org/dc/elements/1.1/"
   xmlns:cc="http://creativecommons.org/ns#"
   xmlns:rdf="http://www.w3.org/1999/02/22-rdf-syntax-ns#"
   xmlns:svg="http://www.w3.org/2000/svg"
   xmlns="http://www.w3.org/2000/svg"
   xmlns:sodipodi="http://sodipodi.sourceforge.net/DTD/sodipodi-0.dtd"
   xmlns:inkscape="http://www.inkscape.org/namespaces/inkscape"
   width="95.152199mm"
   height="22.19684mm"
   viewBox="0 0 95.152199 22.19684"
   version="1.1"
   id="svg8"
   inkscape:version="0.92.4 5da689c313, 2019-01-14"
   sodipodi:docname="logo-dark.svg"
   inkscape:export-filename="/home/jos/Desktop/logo-dark.svg.png"
   inkscape:export-xdpi="191.36684"
   inkscape:export-ydpi="191.36684">
  <defs
     id="defs2" />
  <sodipodi:namedview
     id="base"
     pagecolor="#ffffff"
     bordercolor="#666666"
     borderopacity="1.0"
     inkscape:pageopacity="0.0"
     inkscape:pageshadow="2"
     inkscape:zoom="2.9669352"
     inkscape:cx="162.47356"
     inkscape:cy="-46.696059"
     inkscape:document-units="mm"
     inkscape:current-layer="g27"
     showgrid="false"
     inkscape:pagecheckerboard="false"
     inkscape:window-width="2880"
     inkscape:window-height="1720"
     inkscape:window-x="0"
     inkscape:window-y="0"
     inkscape:window-maximized="1" />
  <metadata
     id="metadata5">
    <rdf:RDF>
      <cc:Work
         rdf:about="">
        <dc:format>image/svg+xml</dc:format>
        <dc:type
           rdf:resource="http://purl.org/dc/dcmitype/StillImage" />
        <dc:title></dc:title>
      </cc:Work>
    </rdf:RDF>
  </metadata>
  <g
     inkscape:label="Layer 1"
     inkscape:groupmode="layer"
     id="layer1"
     transform="translate(-77.920296,-169.71878)" />
  <g
     inkscape:groupmode="layer"
     id="layer2"
     inkscape:label="Text"
     transform="translate(-77.920296,-82.718779)">
    <g
       id="g27">
      <path
         style="fill:#000000;stroke-width:0.49786574"
         inkscape:connector-curvature="0"
         d="m 77.920296,191.91562 11.098412,-22.19684 11.098402,22.19684 z m 17.072805,-3.48507 -5.974393,-9.45945 -5.974368,9.45945 z"
         id="path3784"
         transform="translate(0,-87.000001)" />
      <g
         aria-label="After Dark"
         transform="matrix(0.26458333,0,0,0.26458333,-5.6962727,8.4541537)"
         style="font-style:normal;font-variant:normal;font-weight:normal;font-stretch:normal;font-size:48px;line-height:1.25;font-family:monospace;-inkscape-font-specification:'monospace, Normal';font-variant-ligatures:normal;font-variant-caps:normal;font-variant-numeric:normal;font-feature-settings:normal;text-align:start;letter-spacing:0px;word-spacing:0px;writing-mode:lr-tb;text-anchor:start;fill:#000000;fill-opacity:1;stroke:none"
         id="flowRoot3796">
        <path
           d="m 417.2,331.48555 1.728,7.2 h 8.448 l -10.176,-33.264 h -9.552 l -10.176,33.264 h 8.256 l 1.728,-7.2 z m -8.496,-5.664 3.6,-14.736 3.6,14.736 z"
           style="font-style:normal;font-variant:normal;font-weight:bold;font-stretch:normal;font-size:48px;font-family:'Fira Code';-inkscape-font-specification:'Fira Code, Bold';font-variant-ligatures:normal;font-variant-caps:normal;font-variant-numeric:normal;font-feature-settings:normal;text-align:start;writing-mode:lr-tb;text-anchor:start"
           id="path15"
           inkscape:connector-curvature="0" />
        <path
           d="m 446.36525,302.25355 c -6.912,0 -10.56,3.84 -10.56,8.88 v 3.648 h -5.376 v 5.28 h 5.376 v 18.624 h 7.536 v -18.624 h 7.44 l 0.864,-5.28 h -8.304 v -3.408 c 0,-2.496 1.2,-3.504 4.224,-3.504 1.824,0 3.696,0.288 5.424,0.96 l 2.112,-4.944 c -2.256,-0.96 -4.992,-1.632 -8.736,-1.632 z"
           style="font-style:normal;font-variant:normal;font-weight:bold;font-stretch:normal;font-size:48px;font-family:'Fira Code';-inkscape-font-specification:'Fira Code, Bold';font-variant-ligatures:normal;font-variant-caps:normal;font-variant-numeric:normal;font-feature-settings:normal;text-align:start;writing-mode:lr-tb;text-anchor:start"
           id="path17"
           inkscape:connector-curvature="0" />
        <path
           d="m 481.8665,337.19755 -2.496,-4.848 c -1.2,0.672 -2.688,1.152 -4.464,1.152 -2.544,0 -3.648,-0.96 -3.648,-3.504 v -11.568 h 7.44 l 0.768,-5.232 h -8.208 v -6.432 l -7.584,0.912 v 5.52 h -5.328 v 5.232 h 5.328 v 11.568 c 0,5.856 3.168,9.504 9.84,9.504 3.504,0 6.336,-1.008 8.352,-2.304 z"
           style="font-style:normal;font-variant:normal;font-weight:bold;font-stretch:normal;font-size:48px;font-family:'Fira Code';-inkscape-font-specification:'Fira Code, Bold';font-variant-ligatures:normal;font-variant-caps:normal;font-variant-numeric:normal;font-feature-settings:normal;text-align:start;writing-mode:lr-tb;text-anchor:start"
           id="path19"
           inkscape:connector-curvature="0" />
        <path
           d="m 494.27975,328.17355 h 16.512 c 0.096,-0.768 0.144,-1.872 0.144,-2.736 0,-8.208 -4.656,-13.104 -11.952,-13.104 -8.016,0 -12.432,6.096 -12.432,13.632 0,7.92 4.512,13.536 13.248,13.536 4.32,0 7.776,-1.44 10.176,-3.504 l -3.024,-4.128 c -2.016,1.296 -4.224,2.112 -6.528,2.112 -3.264,0 -5.616,-1.632 -6.144,-5.808 z m 4.704,-10.752 c 3.216,0 4.512,2.448 4.56,6.144 h -9.36 c 0.336,-4.224 2.112,-6.144 4.8,-6.144 z"
           style="font-style:normal;font-variant:normal;font-weight:bold;font-stretch:normal;font-size:48px;font-family:'Fira Code';-inkscape-font-specification:'Fira Code, Bold';font-variant-ligatures:normal;font-variant-caps:normal;font-variant-numeric:normal;font-feature-settings:normal;text-align:start;writing-mode:lr-tb;text-anchor:start"
           id="path21"
           inkscape:connector-curvature="0" />
        <path
           d="m 535.925,312.42955 c -4.08,0 -6.864,2.112 -8.688,6.48 l -1.344,-5.712 h -9.168 v 5.04 h 3.36 v 15.36 h -3.36 v 5.088 h 15.984 v -5.088 h -5.04 v -7.296 c 1.152,-3.792 3.408,-6.624 6.288,-7.104 v 4.656 h 4.8 l 1.392,-10.656 c -1.2,-0.48 -2.496,-0.768 -4.224,-0.768 z"
           style="font-style:normal;font-variant:normal;font-weight:bold;font-stretch:normal;font-size:48px;font-family:'Fira Code';-inkscape-font-specification:'Fira Code, Bold';font-variant-ligatures:normal;font-variant-caps:normal;font-variant-numeric:normal;font-feature-settings:normal;text-align:start;writing-mode:lr-tb;text-anchor:start"
           id="path23"
           inkscape:connector-curvature="0" />
        <path
           d="m 588.64575,321.88555 c 0,-13.728 -8.112,-16.464 -16.656,-16.464 h -8.4 v 33.264 h 8.976 c 8.256,0 16.08,-3.264 16.08,-16.8 z m -8.112,0 c 0,8.736 -3.024,11.088 -7.392,11.088 h -1.68 v -21.84 h 1.68 c 4.176,0 7.392,1.824 7.392,10.752 z"
           style="font-style:normal;font-variant:normal;font-weight:bold;font-stretch:normal;font-size:48px;font-family:'Fira Code';-inkscape-font-specification:'Fira Code, Bold';font-variant-ligatures:normal;font-variant-caps:normal;font-variant-numeric:normal;font-feature-settings:normal;text-align:start;writing-mode:lr-tb;text-anchor:start"
           id="path25"
           inkscape:connector-curvature="0" />
        <path
           d="m 614.691,331.34155 v -9.984 c 0,-5.856 -3.552,-9.024 -11.136,-9.024 -2.832,0 -6.624,0.672 -9.936,1.92 l 1.728,5.04 c 2.544,-0.864 5.376,-1.344 7.008,-1.344 3.264,0 5.04,1.248 5.04,3.936 v 0.912 h -3.408 c -7.872,0 -12.432,3.168 -12.432,8.688 0,4.704 3.36,8.016 8.64,8.016 3.168,0 6.384,-1.104 8.352,-3.456 1.2,2.112 3.264,3.072 6.24,3.36 l 1.584,-4.992 c -1.2,-0.432 -1.68,-1.152 -1.68,-3.072 z m -11.904,2.736 c -2.16,0 -3.408,-1.152 -3.408,-3.12 0,-2.496 1.92,-3.84 6.144,-3.84 h 1.872 v 4.176 c -0.96,1.776 -2.976,2.784 -4.608,2.784 z"
           style="font-style:normal;font-variant:normal;font-weight:bold;font-stretch:normal;font-size:48px;font-family:'Fira Code';-inkscape-font-specification:'Fira Code, Bold';font-variant-ligatures:normal;font-variant-caps:normal;font-variant-numeric:normal;font-feature-settings:normal;text-align:start;writing-mode:lr-tb;text-anchor:start"
           id="path27"
           inkscape:connector-curvature="0" />
        <path
           d="m 641.45625,312.42955 c -4.08,0 -6.864,2.112 -8.688,6.48 l -1.344,-5.712 h -9.168 v 5.04 h 3.36 v 15.36 h -3.36 v 5.088 h 15.984 v -5.088 h -5.04 v -7.296 c 1.152,-3.792 3.408,-6.624 6.288,-7.104 v 4.656 h 4.8 l 1.392,-10.656 c -1.2,-0.48 -2.496,-0.768 -4.224,-0.768 z"
           style="font-style:normal;font-variant:normal;font-weight:bold;font-stretch:normal;font-size:48px;font-family:'Fira Code';-inkscape-font-specification:'Fira Code, Bold';font-variant-ligatures:normal;font-variant-caps:normal;font-variant-numeric:normal;font-feature-settings:normal;text-align:start;writing-mode:lr-tb;text-anchor:start"
           id="path29"
           inkscape:connector-curvature="0" />
        <path
           d="m 658.3815,302.25355 -7.584,0.816 v 35.616 h 7.584 z m 16.608,10.944 h -7.92 l -8.4,11.52 8.352,13.968 h 8.64 l -9.072,-14.208 z"
           style="font-style:normal;font-variant:normal;font-weight:bold;font-stretch:normal;font-size:48px;font-family:'Fira Code';-inkscape-font-specification:'Fira Code, Bold';font-variant-ligatures:normal;font-variant-caps:normal;font-variant-numeric:normal;font-feature-settings:normal;text-align:start;writing-mode:lr-tb;text-anchor:start"
           id="path31"
           inkscape:connector-curvature="0" />
      </g>
    </g>
  </g>
</svg>
